<svg width="159" height="176" viewBox="0 0 159 176" fill="none" xmlns="http://www.w3.org/2000/svg">
<path d="M79.3876 59.9757C79.5704 59.9537 79.7533 59.9317 79.9416 59.9089C83.0586 59.5402 86.0706 59.4315 89.2008 59.7456C89.3811 59.7612 89.5613 59.7768 89.747 59.7929C95.2927 60.2921 100.868 62.0652 105.746 64.735C105.979 64.8618 106.211 64.9885 106.451 65.1191C107.894 65.928 109.25 66.8155 110.587 67.7894C111.106 68.1656 111.633 68.5215 112.17 68.8727C115.438 71.1069 118.268 74.2075 120.593 77.3949C120.856 77.7547 121.124 78.1104 121.392 78.4662C125.244 83.6747 128.06 90.3246 128.878 96.7628C128.899 96.9292 128.921 97.0956 128.943 97.2671C129.391 100.764 129.83 104.199 129.503 107.726C129.486 107.928 129.47 108.131 129.453 108.339C128.937 114.305 127.278 120.103 124.428 125.373C124.334 125.55 124.239 125.726 124.141 125.908C123.941 126.277 123.738 126.644 123.534 127.01C123.979 127.817 124.634 128.313 125.351 128.865C125.483 128.968 125.614 129.071 125.75 129.177C126.191 129.521 126.633 129.864 127.076 130.207C127.392 130.453 127.708 130.7 128.025 130.947C128.706 131.478 129.389 132.009 130.071 132.539C131.151 133.378 132.23 134.22 133.308 135.062C136.374 137.456 139.442 139.847 142.513 142.235C144.209 143.554 145.903 144.874 147.595 146.198C148.665 147.034 149.737 147.868 150.811 148.7C151.481 149.22 152.148 149.742 152.815 150.265C153.123 150.506 153.433 150.746 153.743 150.985C157.476 153.863 157.476 153.863 157.971 156.039C158.166 157.941 158.241 159.227 157.076 160.779C155.65 162.475 154.481 162.93 152.282 163.131C149.201 163.248 146.467 160.225 144.169 158.417C143.865 158.178 143.56 157.939 143.256 157.7C142.436 157.057 141.617 156.413 140.797 155.77C139.939 155.095 139.079 154.421 138.22 153.746C136.596 152.472 134.973 151.197 133.35 149.922C131.5 148.469 129.65 147.017 127.801 145.565C123.998 142.58 120.196 139.594 116.395 136.608C115.678 136.989 115.121 137.364 114.534 137.925C110.262 141.812 105.29 144.663 99.8754 146.63C99.6074 146.727 99.6074 146.727 99.3341 146.827C96.3578 147.871 93.3891 148.431 90.2692 148.8C90.0805 148.823 89.8918 148.846 89.6974 148.869C86.5457 149.241 83.4996 149.383 80.3349 149.045C80.0307 149.015 80.0307 149.015 79.7203 148.985C72.2043 148.202 65.2533 145.395 59.0688 141.132C58.8818 141.004 58.8818 141.004 58.691 140.873C49.6627 134.65 43.235 124.774 40.9474 114.057C40.8388 113.436 40.7515 112.813 40.6695 112.188C40.6465 112.015 40.6234 111.842 40.5997 111.664C38.9153 98.7731 41.6796 86.9258 49.5541 76.5076C54.6823 69.8763 61.8075 65.0165 69.6469 62.1626C69.8237 62.0979 70.0005 62.0331 70.1826 61.9664C73.1917 60.9079 76.2316 60.3496 79.3876 59.9757ZM73.738 72.7515C73.5661 72.8157 73.3943 72.8798 73.2173 72.9459C64.842 76.1294 57.9363 82.3654 54.2167 90.5742C52.9283 93.5154 52.1075 96.4508 51.5823 99.6147C51.5516 99.7989 51.5208 99.9832 51.4892 100.173C51.068 102.935 51.1987 105.597 51.5463 108.354C51.5663 108.516 51.5863 108.678 51.607 108.845C51.9025 111.2 52.2582 113.427 53.15 115.641C53.2128 115.801 53.2755 115.961 53.3401 116.126C56.7295 124.699 63.0831 131.509 71.5618 135.25C77.0109 137.544 82.8552 138.353 88.7135 137.619C88.9957 137.583 89.2778 137.548 89.5685 137.512C97.5297 136.449 104.657 132.51 109.929 126.47C110.178 126.207 110.429 125.945 110.68 125.683C111.408 124.881 111.995 124.004 112.578 123.093C112.732 122.856 112.886 122.619 113.045 122.375C115.904 117.893 117.467 113.038 118.154 107.787C118.185 107.553 118.185 107.553 118.217 107.315C119.154 99.423 116.485 91.0832 111.876 84.7413C111.784 84.6133 111.693 84.4854 111.599 84.3536C110.204 82.4178 108.664 80.7727 106.843 79.2345C106.7 79.1129 106.557 78.9913 106.41 78.866C104.104 76.9238 101.735 75.358 99.0113 74.0658C98.7856 73.9577 98.7856 73.9577 98.5554 73.8474C93.0243 71.2489 86.8448 70.4168 80.8087 71.1738C80.3845 71.2269 80.3845 71.2269 79.9516 71.2811C77.7917 71.5694 75.7747 71.9789 73.738 72.7515Z" fill="#CE1419"/>
<path d="M39.071 15.7972C39.1789 15.7779 39.2869 15.7586 39.398 15.7387C43.4918 15.0326 47.8118 15.4498 51.6618 17.0597C51.7622 16.9698 51.7622 16.9698 51.8647 16.8782C52.0674 16.6982 52.271 16.5193 52.4752 16.3411C52.694 16.15 52.9114 15.9572 53.1269 15.7624C56.0797 13.1853 59.8345 12.0318 63.7189 12.2577C67.5776 12.5591 71.0343 14.374 73.5522 17.2888C75.9097 20.2561 77.344 24.0149 76.9243 27.8484C76.8554 28.3234 76.7738 28.7945 76.6889 29.2668C76.6753 29.3779 76.6618 29.4889 76.6478 29.6033C76.2224 32.7488 74.0542 35.7828 71.6593 37.7579C75.0092 43.6478 78.359 49.5377 81.8104 55.6061C81.8104 55.6061 70.1382 54.7552 57.4548 62.5551C44.7714 70.355 41.194 81.304 41.194 81.304C37.7579 75.464 32.3363 68.5721 28.7961 62.5551C28.0063 62.7818 27.2165 63.0085 26.4028 63.242C24.6272 63.59 22.9778 63.542 21.1971 63.2885C21.0571 63.2715 20.9171 63.2545 20.7728 63.2369C17.4912 62.7334 14.3606 60.5626 12.3314 58.007C9.89442 54.6759 8.84731 50.8314 9.45942 46.7304C10.0598 43.1101 12.0888 39.7881 15.0303 37.589C16.6653 36.4241 18.4763 35.5618 20.4384 35.1162C20.878 34.9244 20.878 34.9244 21.0138 34.3725C21.0571 34.1514 21.0967 33.9296 21.1331 33.7073C21.1799 33.4686 21.2269 33.2299 21.2742 32.9913C21.2965 32.8729 21.3188 32.7545 21.3418 32.6325C22.9807 24.0997 30.6482 17.2746 39.071 15.7972Z" fill="#CE1419"/>
<circle cx="85.5671" cy="104.213" r="26.7761" fill="#CE1419"/>
</svg>
