<svg width="961" height="233" viewBox="0 0 961 233" fill="none" xmlns="http://www.w3.org/2000/svg">
<path d="M104.894 79.2455C105.136 79.2164 105.377 79.1873 105.626 79.1573C109.745 78.67 113.724 78.5265 117.86 78.9414C118.098 78.9621 118.337 78.9827 118.582 79.004C125.909 79.6636 133.276 82.0063 139.721 85.534C140.028 85.7014 140.336 85.8688 140.653 86.0414C142.56 87.1101 144.351 88.2828 146.117 89.5697C146.804 90.0667 147.5 90.5369 148.209 91.001C152.527 93.953 156.266 98.0498 159.339 102.261C159.686 102.737 160.04 103.207 160.394 103.677C165.484 110.559 169.204 119.345 170.285 127.852C170.314 128.072 170.342 128.292 170.372 128.518C170.963 133.139 171.543 137.678 171.111 142.338C171.089 142.605 171.067 142.872 171.044 143.148C170.363 151.03 168.171 158.691 164.406 165.655C164.281 165.888 164.156 166.121 164.027 166.361C163.763 166.848 163.494 167.333 163.224 167.817C163.813 168.884 164.678 169.539 165.625 170.269C165.799 170.405 165.973 170.541 166.152 170.681C166.735 171.136 167.319 171.588 167.904 172.041C168.322 172.367 168.74 172.693 169.158 173.019C170.059 173.721 170.96 174.422 171.862 175.123C173.289 176.232 174.714 177.344 176.138 178.456C180.19 181.619 184.243 184.779 188.301 187.934C190.542 189.676 192.78 191.421 195.016 193.17C196.43 194.275 197.847 195.377 199.265 196.476C200.15 197.163 201.032 197.853 201.913 198.544C202.321 198.863 202.729 199.18 203.139 199.495C208.071 203.297 208.071 203.297 208.726 206.173C208.983 208.686 209.083 210.385 207.543 212.436C205.659 214.677 204.114 215.278 201.209 215.543C197.137 215.699 193.526 211.704 190.49 209.315C190.087 208.999 189.685 208.684 189.282 208.368C188.199 207.518 187.117 206.668 186.034 205.817C184.9 204.925 183.764 204.035 182.629 203.144C180.483 201.46 178.338 199.775 176.194 198.09C173.75 196.171 171.306 194.252 168.862 192.333C163.837 188.39 158.814 184.445 153.792 180.499C152.845 181.002 152.108 181.498 151.333 182.239C145.688 187.375 139.118 191.142 131.964 193.741C131.61 193.87 131.61 193.87 131.249 194.001C127.317 195.38 123.394 196.12 119.272 196.609C119.023 196.639 118.773 196.669 118.516 196.7C114.352 197.191 110.327 197.378 106.146 196.932C105.744 196.893 105.744 196.893 105.334 196.852C95.4029 195.818 86.2186 192.109 78.0471 186.476C77.8 186.307 77.8 186.307 77.5478 186.134C65.6188 177.913 57.126 164.863 54.1035 150.703C53.9599 149.882 53.8446 149.059 53.7363 148.233C53.7058 148.004 53.6754 147.776 53.644 147.54C51.4185 130.508 55.0709 114.854 65.4754 101.089C72.2512 92.3271 81.6657 85.9059 92.0238 82.135C92.2574 82.0495 92.491 81.9639 92.7316 81.8757C96.7076 80.4772 100.724 79.7395 104.894 79.2455ZM97.4293 96.126C97.2023 96.2108 96.9752 96.2955 96.7413 96.3829C85.6752 100.589 76.5506 108.829 71.6361 119.675C69.9336 123.561 68.8492 127.44 68.1553 131.62C68.1146 131.864 68.074 132.107 68.0321 132.358C67.4757 136.008 67.6484 139.525 68.1077 143.168C68.1341 143.382 68.1606 143.595 68.1878 143.816C68.5783 146.928 69.0482 149.87 70.2266 152.795C70.3095 153.007 70.3924 153.218 70.4778 153.436C74.9561 164.764 83.3511 173.762 94.554 178.705C101.754 181.736 109.476 182.805 117.216 181.834C117.589 181.788 117.962 181.741 118.346 181.693C128.865 180.289 138.282 175.084 145.248 167.104C145.578 166.756 145.908 166.41 146.24 166.064C147.203 165.004 147.978 163.846 148.748 162.641C148.952 162.328 149.156 162.015 149.365 161.693C153.143 155.771 155.208 149.357 156.116 142.418C156.157 142.109 156.157 142.109 156.199 141.794C157.437 131.367 153.911 120.348 147.82 111.968C147.699 111.799 147.579 111.63 147.454 111.456C145.612 108.898 143.576 106.724 141.17 104.692C140.981 104.531 140.793 104.371 140.598 104.205C137.552 101.639 134.421 99.57 130.823 97.8626C130.525 97.7197 130.525 97.7197 130.22 97.574C122.912 94.1407 114.747 93.0412 106.772 94.0415C106.211 94.1116 106.211 94.1116 105.639 94.1832C102.785 94.5641 100.12 95.1053 97.4293 96.126Z" fill="white"/>
<path d="M51.6242 20.8729C51.7668 20.8474 51.9094 20.8219 52.0563 20.7956C57.4653 19.8626 63.1733 20.4138 68.2602 22.5409C68.393 22.4222 68.393 22.4222 68.5284 22.3012C68.7962 22.0634 69.0651 21.827 69.3349 21.5915C69.6241 21.339 69.9114 21.0843 70.1961 20.8268C74.0975 17.4217 79.0587 15.8976 84.1911 16.1962C89.2896 16.5944 93.857 18.9924 97.1839 22.8438C100.299 26.7644 102.194 31.7308 101.639 36.796C101.548 37.4236 101.44 38.0461 101.328 38.6702C101.31 38.8169 101.292 38.9636 101.274 39.1148C100.712 43.2708 97.8471 47.2797 94.6828 49.8893C99.1089 57.6716 103.535 65.4539 108.095 73.4719C108.095 73.4719 92.673 72.3477 75.9145 82.6537C59.156 92.9596 54.4293 107.426 54.4293 107.426C49.8892 99.71 42.7257 90.6038 38.048 82.6537C37.0045 82.9532 35.9609 83.2527 34.8858 83.5613C32.5397 84.0211 30.3603 83.9577 28.0076 83.6227C27.8226 83.6002 27.6376 83.5777 27.4469 83.5545C23.1109 82.8893 18.9746 80.021 16.2934 76.6442C13.0734 72.2429 11.6899 67.1632 12.4986 61.7446C13.2919 56.9612 15.9729 52.5718 19.8594 49.6662C22.0197 48.127 24.4126 46.9876 27.0051 46.3988C27.5859 46.1454 27.5859 46.1454 27.7653 45.4162C27.8226 45.1241 27.8748 44.831 27.923 44.5373C27.9848 44.2219 28.0469 43.9066 28.1094 43.5913C28.1389 43.4348 28.1683 43.2784 28.1987 43.1171C30.3642 31.8428 40.4952 22.825 51.6242 20.8729Z" fill="white"/>
<circle cx="113.059" cy="137.696" r="35.379" fill="white"/>
<path d="M283.474 133.013C286.105 133.89 286.446 135.054 287.842 137.422C288.304 138.197 288.767 138.972 289.23 139.746C289.466 140.145 289.701 140.544 289.944 140.955C291.493 143.56 293.099 146.13 294.692 148.709C295.433 149.915 296.168 151.125 296.891 152.342C297.61 153.539 298.374 154.71 299.149 155.873C299.58 155.873 300.011 155.873 300.455 155.873C300.742 155.355 301.028 154.838 301.324 154.306C302.393 152.376 303.463 150.447 304.533 148.518C304.995 147.685 305.457 146.852 305.919 146.019C306.584 144.817 307.251 143.616 307.918 142.415C308.318 141.693 308.718 140.971 309.13 140.228C309.5 139.571 309.871 138.915 310.252 138.238C310.481 137.62 310.71 137.002 310.946 136.364C312.5 134.655 313.003 134.729 315.252 134.602C316.54 134.603 317.829 134.621 319.118 134.654C319.796 134.658 320.475 134.663 321.174 134.668C323.344 134.686 325.513 134.727 327.682 134.769C329.152 134.785 330.622 134.8 332.092 134.813C335.698 134.849 339.303 134.904 342.908 134.973C339.102 143.104 335.174 151.163 331.136 159.181C326.94 167.517 322.762 175.855 318.783 184.297C315.528 191.169 312.089 197.95 308.666 204.739C308.43 205.208 308.194 205.677 307.951 206.16C307.506 207.046 307.059 207.931 306.611 208.816C305.749 210.531 304.982 212.176 304.374 214C302.091 213.239 301.941 212.867 300.784 210.862C300.477 210.338 300.17 209.814 299.853 209.274C299.526 208.705 299.2 208.136 298.863 207.55C298.166 206.36 297.467 205.17 296.766 203.981C296.227 203.065 296.227 203.065 295.677 202.129C293.621 198.681 291.458 195.3 289.301 191.913C288.994 191.43 288.687 190.947 288.37 190.449C288.085 190.003 287.799 189.557 287.505 189.098C286.847 188.047 286.23 186.972 285.62 185.893C285.343 185.469 285.066 185.046 284.781 184.61C284.349 184.61 283.918 184.61 283.474 184.61C283.008 185.457 283.008 185.457 282.533 186.322C278.869 192.931 275.013 199.416 271.101 205.88C270.692 206.556 270.284 207.232 269.863 207.928C269.497 208.532 269.131 209.136 268.754 209.758C267.938 211.15 267.192 212.546 266.493 214C266.062 214 265.631 214 265.187 214C264.989 213.602 264.791 213.204 264.586 212.794C262.687 208.982 260.786 205.17 258.883 201.359C257.906 199.401 256.929 197.443 255.954 195.484C252.081 187.711 248.195 179.952 244.122 172.282C240.81 166.029 237.649 159.699 234.485 153.37C233.411 151.223 232.332 149.077 231.253 146.932C230.568 145.564 229.884 144.196 229.199 142.828C228.877 142.188 228.554 141.548 228.222 140.888C227.93 140.301 227.637 139.713 227.335 139.108C227.076 138.592 226.818 138.075 226.551 137.543C226 136.279 226 136.279 226 134.973C230.157 134.69 234.312 134.496 238.477 134.363C239.891 134.307 241.303 134.232 242.715 134.135C254.101 133.377 254.101 133.377 257.297 136.003C259.453 138.635 260.795 141.588 262.035 144.737C262.707 146.404 263.568 147.91 264.498 149.446C264.974 150.295 265.449 151.144 265.922 151.995C266.298 152.667 266.298 152.667 266.682 153.353C267.273 154.41 267.863 155.468 268.453 156.526C270.528 154.054 272.233 151.451 273.869 148.678C274.125 148.249 274.38 147.821 274.644 147.379C275.453 146.021 276.26 144.66 277.066 143.3C277.879 141.931 278.693 140.562 279.508 139.193C280.014 138.344 280.519 137.495 281.022 136.644C282.749 133.739 282.749 133.739 283.474 133.013Z" fill="white"/>
<path d="M620.814 141.983C626.015 146.434 630.977 151.549 632.239 158.485C628.477 159.73 624.711 160.963 620.941 162.184C619.659 162.601 618.378 163.022 617.099 163.446C615.26 164.055 613.417 164.652 611.574 165.246C611.001 165.438 610.429 165.631 609.84 165.829C609.304 165.999 608.768 166.169 608.216 166.344C607.746 166.498 607.276 166.652 606.792 166.81C605.064 167.025 604.306 166.585 602.848 165.669C602.31 165.225 601.771 164.78 601.216 164.322C598.665 162.345 596.395 162.138 593.156 162.174C589.954 162.695 587.396 164.709 585.255 167.057C583.604 169.972 583.523 172.86 583.908 176.119C584.773 178.656 586.236 180.414 588.153 182.283C592.201 184.09 596.449 183.945 600.603 182.487C602.25 181.456 602.25 181.456 603.093 179.915C604.155 178.731 604.155 178.731 606.356 178.604C609.933 178.688 613.467 179.135 617.013 179.589C617.704 179.676 618.394 179.763 619.106 179.852C624.008 180.494 628.773 181.336 633.545 182.65C632.055 191.592 627.531 199.544 620.278 205.019C610.033 212.07 598.705 215.008 586.344 213C584.618 212.545 582.969 212.008 581.296 211.387C580.749 211.205 580.203 211.024 579.64 210.836C575.332 209.292 571.851 206.974 568.233 204.203C567.63 203.774 567.63 203.774 567.014 203.336C560.647 198.465 555.869 189.933 554.125 182.219C552.559 169.092 554.078 158.672 562.355 148.035C569.233 139.605 579.167 134.939 589.71 133.207C600.635 132.167 612.201 135.038 620.814 141.983Z" fill="white"/>
<path d="M771.352 134.973C779.327 134.973 787.302 134.973 795.518 134.973C795.518 145.102 795.518 155.232 795.518 165.669C798.62 162.776 798.62 162.776 800.046 160.529C801.915 157.897 803.564 155.678 806.754 154.842C810.867 154.319 814.984 154.564 819.112 154.77C820.372 154.806 821.632 154.839 822.893 154.868C825.962 154.947 829.026 155.071 832.092 155.219C829.694 158.527 827.196 161.612 824.377 164.567C821.827 167.294 819.32 170.044 816.907 172.894C816.432 173.454 815.958 174.014 815.468 174.591C814.218 176.177 814.218 176.177 814.458 178.731C815.12 179.997 815.12 179.997 816.091 181.219C816.45 181.7 816.809 182.181 817.179 182.677C817.574 183.194 817.97 183.71 818.377 184.242C818.783 184.783 819.189 185.323 819.607 185.88C820.931 187.639 822.265 189.391 823.602 191.141C824.059 191.74 824.516 192.34 824.987 192.958C827.686 196.5 827.686 196.5 830.397 200.034C838.623 210.751 838.623 210.751 838.623 212.04C814.503 214.681 814.503 214.681 808.572 211.289C803.61 207.294 800.895 200.903 798.783 195.059C797.43 195.808 797.43 195.808 796.171 197.019C795.752 198.652 795.752 198.652 795.773 200.496C795.753 201.101 795.733 201.706 795.712 202.33C795.702 203.096 795.692 203.862 795.681 204.652C795.627 207.09 795.573 209.528 795.518 212.04C787.543 212.04 779.569 212.04 771.352 212.04C771.352 186.608 771.352 161.176 771.352 134.973Z" fill="white"/>
<path d="M468.96 154.566C468.904 154.974 468.848 155.382 468.79 155.802C468.533 157.676 468.277 159.55 468.021 161.424C467.933 162.066 467.845 162.707 467.754 163.368C467.263 166.963 466.789 170.559 466.347 174.16C465.708 174.256 465.708 174.256 465.056 174.354C460.563 175.122 457.596 176.238 454.428 179.67C451.9 183.371 451.764 186.569 451.708 190.929C451.695 191.533 451.683 192.138 451.67 192.76C451.631 194.683 451.6 196.606 451.57 198.529C451.545 199.836 451.52 201.143 451.494 202.449C451.43 205.646 451.378 208.843 451.325 212.041C443.351 212.041 435.376 212.041 427.16 212.041C427.16 193.29 427.16 174.539 427.16 155.219C432.979 155.219 438.799 155.219 444.794 155.219C445.01 157.159 445.225 159.099 445.447 161.097C445.898 160.79 446.348 160.483 446.812 160.166C454.481 155.085 459.963 154.268 468.96 154.566Z" fill="white"/>
<path d="M403.648 134.973C407.527 134.973 411.407 134.973 415.404 134.973C415.404 144.456 415.404 153.939 415.404 163.71C411.524 163.71 407.645 163.71 403.648 163.71C403.648 154.227 403.648 144.743 403.648 134.973Z" fill="white"/>
<path d="M645.304 161.651C656.74 151.065 674.933 151.219 687.549 159.347C693.573 163.723 697.392 169.43 699.102 176.732C700.495 185.803 699.1 193.615 694.124 201.384C689.078 208.048 681.571 212.022 673.385 213.347C663.551 214.079 654.249 212.691 646.418 206.237C640.368 200.47 636.81 193.431 636.533 185.001C636.478 175.956 639.085 168.378 645.304 161.651ZM671.426 175.466C667.003 175.051 664.211 174.954 660.854 178.119C659.422 180.439 659.427 181.89 659.514 184.553C659.875 187.713 661.219 189.043 663.566 190.985C666.292 192.644 668.846 192.09 671.874 191.386C673.988 190.129 675.528 188.749 676.651 186.569C677.181 183.753 676.966 181.455 675.875 178.813C674.405 177.09 673.557 176.309 671.426 175.466Z" fill="white"/>
<path d="M960.103 212.04H943.122C942.475 209.131 942.476 209.131 941.816 206.162C941.5 206.47 941.183 206.777 940.857 207.094C937.812 209.923 935.348 211.499 931.366 212.694C930.979 212.812 930.592 212.931 930.193 213.053C922.039 214.716 914.46 212.79 907.364 208.735C900.884 204.358 897.097 197.37 895.445 189.834C894.616 180.021 895.114 171.475 901.55 163.582C905.962 158.763 911.589 154.382 918.33 153.797C919.872 153.753 921.415 153.727 922.958 153.709C923.483 153.69 924.008 153.671 924.55 153.652C929.245 153.603 931.15 154.61 935.938 156.526V134.32H960.103V212.04ZM929.407 175.466C924.89 174.692 920.802 175.169 918.304 179.385C917.672 182.838 917.707 186.15 919.61 189.182C921.721 190.949 923.069 191.736 925.815 192.079C929.276 191.647 931.224 190.714 933.571 188.12C934.921 185.316 935.11 183.097 934.632 180.037C933.455 177.685 931.811 176.489 929.407 175.466Z" fill="white"/>
<path d="M710.299 162.51C720.438 151.212 739.463 151.034 751.813 158.376C758.007 162.58 762.391 168.26 764.331 175.547C766 184.284 764.979 193.234 760.064 200.733C756.163 205.992 751.868 208.794 745.881 211.387C745.345 211.625 744.808 211.862 744.256 212.107C736.237 214.975 725.99 213.962 718.368 210.446C710.673 206.3 706.223 200.514 703.357 192.339C701.462 184.18 701.807 174.703 706.273 167.508C707.218 166.167 708.223 164.942 709.306 163.709C709.633 163.314 709.961 162.918 710.299 162.51ZM736.737 175.466C733.905 174.916 731.437 174.926 728.77 176.096C726.703 177.542 725.771 178.639 725.311 181.153C725.221 185.078 725.588 187.706 728.287 190.651C730.568 192.01 732.024 192.173 734.638 192.046C737.596 191.53 739.357 189.956 741.228 187.711C742.393 184.863 742.387 182.22 741.554 179.221C740.114 177.388 738.836 176.516 736.737 175.466Z" fill="white"/>
<path d="M864.546 153.677C872.855 153.671 879.765 156.588 885.852 162.24C892.763 169.557 892.833 177.379 892.833 187.222H854.298C855.454 193.005 855.455 193.005 858.871 197.019C861.847 198.011 864.564 198.321 867.465 197.057C869.681 195.736 871.097 194.668 872.586 192.529C873.017 192.071 873.448 191.613 873.892 191.141C877.854 191.373 881.524 192.363 885.322 193.467C886.128 193.696 886.128 193.697 886.95 193.931C888.259 194.304 889.567 194.681 890.874 195.06C890.173 200.733 886.707 204.214 882.419 207.775C875.111 213.221 865.767 214.262 856.911 213.347C849.392 211.913 842.081 208.395 837.318 202.243C836.017 200.141 834.999 197.994 834.052 195.712C833.843 195.239 833.633 194.766 833.417 194.279C830.952 187.699 830.917 178.265 833.374 171.675C837.248 163.49 841.887 158.61 850.38 155.219C854.541 153.927 858.364 153.694 862.708 153.709C863.314 153.699 863.921 153.688 864.546 153.677ZM865.401 170.894C861.667 170.393 858.328 170.172 855.523 172.894C854.298 174.812 854.298 174.813 854.298 180.037H869.32V174.813L868.667 174.159C867.442 172.486 867.442 172.486 865.401 170.894Z" fill="white"/>
<path d="M350.092 157.179C360.812 151.776 374.742 152.062 385.141 158.207C386.658 159.295 387.959 160.433 389.28 161.751C389.694 162.157 390.108 162.564 390.534 162.983C395.276 168.302 397.616 176.237 397.295 183.294C397.117 184.61 397.116 184.61 396.463 187.222H357.93C359.083 192.35 359.084 192.351 361.849 196.366C365.051 197.782 368.308 198.229 371.645 197.019C374.303 195.186 376.386 193.173 378.176 190.488C378.581 190.599 378.986 190.711 379.404 190.825C384.649 192.26 389.902 193.662 395.158 195.059C394.364 200.259 390.96 204.408 386.978 207.706C377.997 213.641 367.665 214.552 357.243 212.576C349.144 210.323 343.572 205.942 339.321 198.83C335.396 191.61 334.855 182.74 336.469 174.736C338.837 166.795 342.961 161.282 350.092 157.179ZM369.033 170.894C365.55 170.278 362.849 170.274 359.807 172.16C358.583 174.16 358.583 174.16 357.93 180.038H372.951V174.16C371.529 172.277 371.104 171.721 369.033 170.894Z" fill="white"/>
<path d="M483.956 156.043C494.599 151.625 509.192 152.461 518.555 159.294C524.144 164.068 527.829 169.468 529.046 176.773V187.222H489.859C491.054 192.327 491.055 192.328 493.778 196.366C496.34 197.889 498.681 197.971 501.616 197.672C505.81 196.338 507.834 194.179 510.106 190.488C515.812 191.867 521.451 193.418 527.086 195.06C526.469 200.572 522.783 204.5 518.555 207.898C510.276 213.64 500.348 214.623 490.584 212.898C482.63 210.832 476.439 206.597 471.735 199.835C467.41 192.328 466.83 181.471 469.042 173.139C471.969 165.286 476.697 160.045 483.956 156.043ZM500.962 170.894C497.77 170.394 494.79 170.284 492.064 172.201C490.513 174.16 490.512 174.16 490.512 179.385H504.881V174.16C503.91 172.217 503.91 172.217 500.962 170.894Z" fill="white"/>
</svg>
